name rise31.4854peak64.571fall78.6902.mot
datacolumns 19
datarows 26
range 13.71995500000000 13.76162000000000
endheader
time	ground_force1_vx	ground_force1_vy	ground_force1_vz	ground_force1_px	ground_force1_py	ground_force1_pz	ground_force2_vx	ground_force2_vy	ground_force2_vz	ground_force2_px	ground_force2_py	ground_force2_pz	ground_torque1_x	ground_torque1_y	ground_torque1_z	ground_torque2_x	ground_torque2_y	ground_torque2_z	
13.71995500000000	-49.66530400000000	810.39585899999997	63.48137800000000	0.10457900000000	0.00000000000000	0.12481200000000	-6.82666400000000	33.00233600000000	9.10629500000000	0.34763800000000	0.00000000000000	-0.05492900000000	0.00000000000000	24.89047200000000	0.00000000000000	0.00000000000000	5.95729100000000	0.00000000000000	
13.72162600000000	-49.64661200000000	807.39182800000003	63.16521900000000	0.10425500000000	0.00000000000000	0.12473800000000	-7.72884300000000	39.21908800000000	10.53054700000000	0.35350800000000	0.00000000000000	-0.05555800000000	0.00000000000000	24.73953900000000	0.00000000000000	0.00000000000000	6.97545600000000	0.00000000000000	
13.72329100000000	-49.63910400000000	804.26738300000000	62.82449200000000	0.10393800000000	0.00000000000000	0.12466100000000	-8.52778200000000	45.50811000000000	11.88294000000000	0.35879400000000	0.00000000000000	-0.05616500000000	0.00000000000000	24.58869100000000	0.00000000000000	0.00000000000000	7.96329400000000	0.00000000000000	
13.72494700000000	-49.64379400000000	801.02319499999999	62.45925800000000	0.10362600000000	0.00000000000000	0.12458000000000	-9.19545000000000	51.76059100000000	13.12825400000000	0.36356100000000	0.00000000000000	-0.05675500000000	0.00000000000000	24.43815200000000	0.00000000000000	0.00000000000000	8.89504000000000	0.00000000000000	
13.72661600000000	-49.66164400000000	797.65998700000000	62.06961100000000	0.10331700000000	0.00000000000000	0.12449500000000	-9.71132500000000	57.88864900000000	14.23933000000000	0.36786800000000	0.00000000000000	-0.05732900000000	0.00000000000000	24.28814100000000	0.00000000000000	0.00000000000000	9.74994800000000	0.00000000000000	
13.72828300000000	-49.69356400000000	794.17852000000005	61.65568300000000	0.10301200000000	0.00000000000000	0.12440700000000	-10.06307200000000	63.82959500000000	15.19810900000000	0.37176100000000	0.00000000000000	-0.05789000000000	0.00000000000000	24.13886400000000	0.00000000000000	0.00000000000000	10.51322900000000	0.00000000000000	
13.72995400000000	-49.74040500000000	790.57959500000004	61.21763800000000	0.10270900000000	0.00000000000000	0.12431400000000	-10.24644300000000	69.54746700000000	15.99577700000000	0.37528400000000	0.00000000000000	-0.05844000000000	0.00000000000000	23.99051700000000	0.00000000000000	0.00000000000000	11.17635800000000	0.00000000000000	
13.73161900000000	-49.80295500000000	786.86404000000005	60.75567400000000	0.10240700000000	0.00000000000000	0.12421900000000	-10.26453600000000	75.03210900000001	16.63212400000000	0.37847200000000	0.00000000000000	-0.05898000000000	0.00000000000000	23.84328400000000	0.00000000000000	0.00000000000000	11.73679800000000	0.00000000000000	
13.73328400000000	-49.88193300000000	783.03270699999996	60.27002200000000	0.10210400000000	0.00000000000000	0.12411900000000	-10.12657400000000	80.29628300000000	17.11430600000000	0.38135600000000	0.00000000000000	-0.05951000000000	0.00000000000000	23.69734000000000	0.00000000000000	0.00000000000000	12.19729100000000	0.00000000000000	
13.73494600000000	-49.97798600000000	779.08646799999997	59.76094000000000	0.10179900000000	0.00000000000000	0.12401600000000	-9.84639000000000	85.37138400000001	17.45521000000000	0.38396600000000	0.00000000000000	-0.06003300000000	0.00000000000000	23.55284300000000	0.00000000000000	0.00000000000000	12.56481700000000	0.00000000000000	
13.73661500000000	-50.09168200000000	775.02620500000000	59.22872000000000	0.10149200000000	0.00000000000000	0.12391000000000	-9.44079500000000	90.30236499999999	17.67164000000000	0.38632400000000	0.00000000000000	-0.06054900000000	0.00000000000000	23.40994200000000	0.00000000000000	0.00000000000000	12.84939400000000	0.00000000000000	
13.73828200000000	-50.22351000000000	770.85280899999998	58.67367900000000	0.10118200000000	0.00000000000000	0.12379900000000	-8.92797800000000	95.14242000000000	17.78248400000000	0.38845400000000	0.00000000000000	-0.06105900000000	0.00000000000000	23.26877000000000	0.00000000000000	0.00000000000000	13.06282600000000	0.00000000000000	
13.73994700000000	-50.37387000000000	766.56717100000003	58.09616300000000	0.10086600000000	0.00000000000000	0.12368500000000	-8.32607200000000	99.94790600000000	17.80703500000000	0.39037400000000	0.00000000000000	-0.06156200000000	0.00000000000000	23.12944500000000	0.00000000000000	0.00000000000000	13.21753000000000	0.00000000000000	
13.74163400000000	-50.54307500000000	762.17017999999996	57.49654300000000	0.10054500000000	0.00000000000000	0.12356700000000	-7.65196400000000	104.77386600000000	17.76356300000000	0.39210200000000	0.00000000000000	-0.06205900000000	0.00000000000000	22.99207400000000	0.00000000000000	0.00000000000000	13.32551600000000	0.00000000000000	
13.74328000000000	-50.73134200000000	757.66272000000004	56.87521600000000	0.10021600000000	0.00000000000000	0.12344600000000	-6.92040100000000	109.67039600000000	17.66820200000000	0.39365400000000	0.00000000000000	-0.06255200000000	0.00000000000000	22.85674500000000	0.00000000000000	0.00000000000000	13.39757700000000	0.00000000000000	
13.74495400000000	-50.93879500000000	753.04565900000000	56.23260100000000	0.09988000000000	0.00000000000000	0.12332100000000	-6.14341700000000	114.67999600000000	17.53420300000000	0.39504400000000	0.00000000000000	-0.06303900000000	0.00000000000000	22.72353200000000	0.00000000000000	0.00000000000000	13.44271400000000	0.00000000000000	
13.74661600000000	-51.16545400000000	748.31985599999996	55.56914100000000	0.09953500000000	0.00000000000000	0.12319300000000	-5.33005800000000	119.83592400000001	17.37152400000000	0.39628400000000	0.00000000000000	-0.06352100000000	0.00000000000000	22.59249400000000	0.00000000000000	0.00000000000000	13.46780700000000	0.00000000000000	
13.74828000000000	-51.41123900000000	743.48614799999996	54.88529900000000	0.09917900000000	0.00000000000000	0.12306000000000	-4.48637800000000	125.16151100000000	17.18673600000000	0.39738700000000	0.00000000000000	-0.06399800000000	0.00000000000000	22.46367200000000	0.00000000000000	0.00000000000000	13.47750600000000	0.00000000000000	
13.74994600000000	-51.67596400000000	738.54535299999998	54.18155900000000	0.09881400000000	0.00000000000000	0.12292500000000	-3.61566000000000	130.67029800000000	16.98320600000000	0.39836300000000	0.00000000000000	-0.06447100000000	0.00000000000000	22.33709100000000	0.00000000000000	0.00000000000000	13.47431100000000	0.00000000000000	
13.75163000000000	-51.95933800000000	733.49826700000006	53.45842600000000	0.09843600000000	0.00000000000000	0.12278600000000	-2.71880000000000	136.36684600000001	16.76147500000000	0.39922200000000	0.00000000000000	-0.06493800000000	0.00000000000000	22.21275900000000	0.00000000000000	0.00000000000000	13.45880300000000	0.00000000000000	
13.75328600000000	-52.26095800000000	728.34565999999995	52.71642000000000	0.09804700000000	0.00000000000000	0.12264300000000	-1.79479500000000	142.24802800000001	16.51978100000000	0.39997300000000	0.00000000000000	-0.06540100000000	0.00000000000000	22.09066600000000	0.00000000000000	0.00000000000000	13.42998100000000	0.00000000000000	
13.75495400000000	-52.58031500000000	723.08827599999995	51.95608100000000	0.09764400000000	0.00000000000000	0.12249700000000	-0.84128600000000	148.30462499999999	16.25464900000000	0.40062400000000	0.00000000000000	-0.06585800000000	0.00000000000000	21.97078500000000	0.00000000000000	0.00000000000000	13.38565500000000	0.00000000000000	
13.75661500000000	-52.91678500000000	717.72683199999994	51.17796700000000	0.09722800000000	0.00000000000000	0.12234700000000	0.14490300000000	154.52303699999999	15.96151300000000	0.40118300000000	0.00000000000000	-0.06631000000000	0.00000000000000	21.85307200000000	0.00000000000000	0.00000000000000	13.32285700000000	0.00000000000000	
13.75828600000000	-53.26963800000000	712.26201700000001	50.38264900000000	0.09679800000000	0.00000000000000	0.12219400000000	1.16726600000000	160.88697500000001	15.63529000000000	0.40165700000000	0.00000000000000	-0.06675700000000	0.00000000000000	21.73746200000000	0.00000000000000	0.00000000000000	13.23824000000000	0.00000000000000	
13.75994900000000	-53.63802900000000	706.69449299999997	49.57071700000000	0.09635300000000	0.00000000000000	0.12203800000000	2.22918000000000	167.37900200000001	15.27089400000000	0.40205200000000	0.00000000000000	-0.06719800000000	0.00000000000000	21.62387600000000	0.00000000000000	0.00000000000000	13.12842600000000	0.00000000000000	
13.76162000000000	-54.02100500000000	701.02489200000002	48.74277300000000	0.09589400000000	0.00000000000000	0.12187800000000	3.33355800000000	173.98184800000001	14.86366000000000	0.40237500000000	0.00000000000000	-0.06763400000000	0.00000000000000	21.51221500000000	0.00000000000000	0.00000000000000	12.99029900000000	0.00000000000000	
